<svg xmlns="http://www.w3.org/2000/svg" viewBox="0 0 15.87 16.14"><defs><style>.cls-1{fill:#fff;}</style></defs><title>ico_instagram_w</title><g id="Layer_2" data-name="Layer 2"><g id="design"><path class="cls-1" d="M11.31,0H4.56A4.56,4.56,0,0,0,0,4.56v7a4.56,4.56,0,0,0,4.56,4.56h6.75a4.57,4.57,0,0,0,4.56-4.56v-7A4.56,4.56,0,0,0,11.31,0ZM1.62,4.56A2.94,2.94,0,0,1,4.56,1.62h6.75a2.94,2.94,0,0,1,2.94,2.94v7a2.94,2.94,0,0,1-2.94,2.94H4.56a2.94,2.94,0,0,1-2.94-2.94Zm6.31,7.66A4.16,4.16,0,1,0,3.78,8.07,4.16,4.16,0,0,0,7.93,12.22Zm0-7A2.86,2.86,0,1,1,5.07,8.07,2.86,2.86,0,0,1,7.93,5.21Zm4.28-2.35a.93.93,0,1,1-.93.93A.93.93,0,0,1,12.21,2.86Z"/></g></g></svg>